<?xml version="1.0" standalone="no"?><!DOCTYPE svg PUBLIC "-//W3C//DTD SVG 1.1//EN" "http://www.w3.org/Graphics/SVG/1.1/DTD/svg11.dtd"><svg t="1673424066979" class="icon" viewBox="0 0 1024 1024" version="1.1" xmlns="http://www.w3.org/2000/svg" p-id="40765" xmlns:xlink="http://www.w3.org/1999/xlink" width="32" height="32"><path d="M560.5888 230.4c129.604267 0 234.666667 105.0624 234.666667 234.666667v170.897066l23.978666 77.7984A68.266667 68.266667 0 0 1 753.979733 802.133333H366.933333a68.266667 68.266667 0 0 1-65.297066-88.192l24.285866-79.5648V465.066667c0-129.604267 105.0624-234.666667 234.666667-234.666667z" fill="#3F85EF" fill-opacity=".1" p-id="40766"></path><path d="M563.2 170.666667a42.666667 42.666667 0 0 1 42.666667 42.666666v25.6H520.533333v-25.6a42.666667 42.666667 0 0 1 42.666667-42.666666zM460.8 802.133333h170.666667l-0.512 2.039467a87.432533 87.432533 0 0 1-169.642667 0L460.8 802.133333z" fill="#3F85EF" fill-opacity=".1" p-id="40767"></path><path d="M595.626667 759.466667c-7.9104 38.946133-42.3424 68.266667-83.626667 68.266666-41.284267 0-75.716267-29.320533-83.626667-68.266666H315.733333a68.266667 68.266667 0 0 1-65.297066-88.192l24.285866-79.5648V422.4c0-115.950933 84.087467-212.2496 194.6112-231.261867V170.666667a42.666667 42.666667 0 0 1 85.333334 0v21.4272C662.6048 213.1968 744.055467 308.283733 744.055467 422.4v170.897067l23.978666 77.7984A68.266667 68.266667 0 0 1 702.779733 759.466667H595.626667zM426.666667 725.333333H702.788267a34.133333 34.133333 0 0 0 32.622933-44.1856l-25.489067-82.7136V422.4c0-110.754133-89.7792-200.533333-200.533333-200.533333s-200.533333 89.7792-200.533333 200.533333v174.395733l-25.770667 84.437334A34.133333 34.133333 0 0 0 315.733333 725.333333h110.933334z m85.333333 68.266667c20.650667 0 37.870933-14.677333 41.813333-34.158933-39.978667 0.008533-41.642667 0.008533-83.618133 0.068266A42.683733 42.683733 0 0 0 512 793.6z" fill="#4C4C4C" p-id="40768"></path><path d="M665.762133 385.732267a25.6 25.6 0 1 1-48.759466 15.607466c-14.139733-44.177067-52.292267-78.711467-100.1984-90.103466a25.6 25.6 0 0 1 11.844266-49.809067c65.134933 15.488 117.435733 62.830933 137.1136 124.305067z" fill="#819DC8" p-id="40769"></path></svg>